<svg width="23" height="32" viewBox="0 0 23 32" fill="none" xmlns="http://www.w3.org/2000/svg">
<path fill-rule="evenodd" clip-rule="evenodd" d="M18.027 29.6483C16.5574 29.6483 15.366 28.4471 15.366 26.9657C15.366 25.4841 16.5574 24.2831 18.027 24.2831C19.4965 24.2831 20.688 25.4841 20.688 26.9657C20.688 28.4471 19.4965 29.6483 18.027 29.6483ZM17.7288 17.87C19.1984 17.87 20.3898 19.071 20.3898 20.5526C20.3898 22.0342 19.1984 23.2352 17.7288 23.2352C16.2591 23.2352 15.0677 22.0342 15.0677 20.5526C15.0677 19.071 16.2591 17.87 17.7288 17.87ZM11.3423 16.7218C9.87285 16.7218 8.68127 15.5207 8.68127 14.0392C8.68127 12.5578 9.87285 11.3566 11.3423 11.3566C12.812 11.3566 14.0034 12.5578 14.0034 14.0392C14.0034 15.5207 12.812 16.7218 11.3423 16.7218ZM11.3423 23.2352C9.87285 23.2352 8.68127 22.0342 8.68127 20.5526C8.68127 19.071 9.87285 17.87 11.3423 17.87C12.812 17.87 14.0034 19.071 14.0034 20.5526C14.0034 22.0342 12.812 23.2352 11.3423 23.2352ZM14.0033 27.1661C14.0033 28.6475 12.8119 29.8487 11.3423 29.8487H5.01187C3.54241 29.8487 2.35083 28.6475 2.35083 27.1661C2.35083 25.6844 3.54241 24.4835 5.01187 24.4835H11.3423C12.8119 24.4835 14.0033 25.6844 14.0033 27.1661ZM4.95584 17.87C6.42568 17.87 7.61688 19.071 7.61688 20.5526C7.61688 22.0342 6.42568 23.2352 4.95584 23.2352C3.48638 23.2352 2.2948 22.0342 2.2948 20.5526C2.2948 19.071 3.48638 17.87 4.95584 17.87ZM4.95584 11.3566C6.42568 11.3566 7.61688 12.5578 7.61688 14.0392C7.61688 15.5207 6.42568 16.7218 4.95584 16.7218C3.48638 16.7218 2.2948 15.5207 2.2948 14.0392C2.2948 12.5578 3.48638 11.3566 4.95584 11.3566ZM20.3898 14.0392C20.3898 15.5207 19.1984 16.7218 17.7288 16.7218C16.2591 16.7218 15.0677 15.5207 15.0677 14.0392C15.0677 12.5578 16.2591 11.3566 17.7288 11.3566C19.1984 11.3566 20.3898 12.5578 20.3898 14.0392ZM2.84375 9.05414H19.7415V2.84143H2.84375V9.05414ZM19.0013 0H3.69866C1.65593 0 0 1.66915 0 3.72843V28.2712C0 30.3306 1.65593 31.9998 3.69866 31.9998H19.0013C21.0441 31.9998 22.7 30.3306 22.7 28.2712V3.72843C22.7 1.66915 21.0441 0 19.0013 0Z" fill="white"/>
</svg>