<svg width="33" height="27" viewBox="0 0 33 27" fill="none" xmlns="http://www.w3.org/2000/svg">
<path fill-rule="evenodd" clip-rule="evenodd" d="M11.7491 4.61749C12.0025 4.36744 12.4328 4.54792 12.4328 4.90383V13.4276V13.5717V22.0965C12.4328 22.4534 12.0025 22.6339 11.7491 22.3828L6.09306 17.9102C6.06188 17.879 6.02066 17.8628 5.97742 17.8628H2.25903C1.01118 17.8628 -0.000366211 16.8485 -0.000366211 15.5973V11.4665C-0.000366211 10.2133 1.01319 9.19796 2.26204 9.19796H5.92011C5.96234 9.19796 6.00457 9.17981 6.03474 9.15057L11.7491 4.61749ZM16.9858 7.66235C18.7504 9.08197 19.762 11.2144 19.762 13.5132C19.762 15.7929 18.7635 17.9142 17.024 19.3348C16.8933 19.4417 16.7354 19.4941 16.5795 19.4941C16.3744 19.4941 16.1713 19.4044 16.0325 19.232C15.7872 18.9285 15.8324 18.4829 16.1341 18.2369C17.5438 17.0864 18.3523 15.3654 18.3523 13.5132C18.3523 11.6469 17.5328 9.91579 16.1049 8.76538C15.8013 8.52138 15.752 8.07674 15.9953 7.77124C16.2387 7.46575 16.6821 7.41634 16.9858 7.66235ZM22.0103 3.92788C24.9012 6.25694 26.5593 9.75455 26.5593 13.5234C26.5593 17.262 24.9233 20.7414 22.0707 23.0695C21.9399 23.1753 21.7831 23.2278 21.6262 23.2278C21.4221 23.2278 21.218 23.138 21.0792 22.9656C20.8339 22.6631 20.8801 22.2175 21.1818 21.9715C23.7036 19.9137 25.1506 16.8335 25.1506 13.5234C25.1506 10.1851 23.6845 7.09076 21.1285 5.03292C20.8248 4.78792 20.7756 4.34328 21.0189 4.03778C21.2622 3.73329 21.7057 3.68389 22.0103 3.92788ZM27.5498 0.208437C31.0641 3.74739 32.9997 8.4801 32.9997 13.5365C32.9997 18.5515 31.0902 23.258 27.6242 26.7899C27.4854 26.93 27.3034 27.0006 27.1224 27.0006C26.9435 27.0006 26.7645 26.9331 26.6267 26.7969C26.3502 26.5227 26.3472 26.074 26.6207 25.7968C29.8253 22.5321 31.59 18.1774 31.59 13.5365C31.59 8.85719 29.8011 4.47837 26.5523 1.2066C26.2768 0.930342 26.2778 0.481672 26.5533 0.206421C26.8288 -0.0688312 27.2753 -0.0678229 27.5498 0.208437Z" fill="black" fill-opacity="0.4"/>
</svg>