<svg width="35" height="35" viewBox="0 0 35 35" fill="none" xmlns="http://www.w3.org/2000/svg">
<path fill-rule="evenodd" clip-rule="evenodd" d="M17.5 6.66675C17.9139 6.66675 18.25 6.33081 18.25 5.91675V0.749756C18.25 0.335815 17.9139 -0.000244141 17.5 -0.000244141C17.0861 -0.000244141 16.75 0.335815 16.75 0.749756V5.91675C16.75 6.33081 17.0861 6.66675 17.5 6.66675ZM29.8741 6.18652L26.2212 9.83948C25.9282 10.1326 25.4531 10.1326 25.1602 9.83948C24.8672 9.54651 24.8672 9.07153 25.1602 8.77856L28.8142 5.12549C29.1062 4.83252 29.5812 4.83252 29.8741 5.12549C30.1672 5.41846 30.1672 5.89355 29.8741 6.18652ZM6.18604 5.12573C5.89404 4.83276 5.41797 4.83276 5.125 5.12573C4.83203 5.4187 4.83203 5.8938 5.125 6.18677L8.77905 9.83972C9.07202 10.1328 9.547 10.1328 9.83997 9.83972C10.1321 9.54675 10.1321 9.07178 9.83997 8.77881L6.18604 5.12573ZM17.4648 10.1521C13.3918 10.1521 10.0898 13.4541 10.0898 17.5271C10.0898 21.6001 13.3918 24.9021 17.4648 24.9021C21.5378 24.9021 24.8398 21.6001 24.8398 17.5271C24.8398 13.4541 21.5378 10.1521 17.4648 10.1521ZM25.1602 25.1599C25.4531 24.8679 25.9282 24.8679 26.2212 25.1599L29.8741 28.814C30.1672 29.1069 30.1672 29.5819 29.8741 29.8749C29.5812 30.168 29.1062 30.168 28.8142 29.8749L25.1602 26.2219C24.8672 25.929 24.8672 25.4529 25.1602 25.1599ZM8.77881 25.1599L5.12573 28.814C4.83276 29.1069 4.83276 29.5819 5.12573 29.8749C5.4187 30.168 5.8938 30.168 6.18579 29.8749L9.83972 26.2219C10.1328 25.929 10.1328 25.4529 9.83972 25.1599C9.54675 24.8679 9.07178 24.8679 8.77881 25.1599ZM16.75 29.0837C16.75 28.6698 17.0861 28.3337 17.5 28.3337C17.9139 28.3337 18.25 28.6698 18.25 29.0837V34.2498C18.25 34.6637 17.9139 34.9998 17.5 34.9998C17.0861 34.9998 16.75 34.6637 16.75 34.2498V29.0837ZM6.6665 17.4998C6.6665 17.0858 6.33154 16.7498 5.9165 16.7498H0.749512C0.335571 16.7498 -0.000488281 17.0858 -0.000488281 17.4998C-0.000488281 17.9137 0.335571 18.2498 0.749512 18.2498H5.9165C6.33154 18.2498 6.6665 17.9137 6.6665 17.4998ZM29.083 16.7498H34.25C34.6641 16.7498 35 17.0858 35 17.4998C35 17.9137 34.6641 18.2498 34.25 18.2498H29.083C28.6691 18.2498 28.333 17.9137 28.333 17.4998C28.333 17.0858 28.6691 16.7498 29.083 16.7498Z" fill="black" fill-opacity="0.4"/>
</svg>