<svg width="27" height="25" viewBox="0 0 27 25" fill="none" xmlns="http://www.w3.org/2000/svg">
<path fill-rule="evenodd" clip-rule="evenodd" d="M22.1145 0.00548116C22.3805 -0.0224729 22.6365 0.0524782 22.8425 0.218494C25.2385 2.15148 26.6135 5.05248 26.6135 8.17943C26.6135 11.2805 25.2574 14.1675 22.8936 16.0995C22.8275 16.1531 22.755 16.1979 22.6782 16.2329C22.5503 16.2912 22.4104 16.3225 22.2686 16.3225C21.9675 16.3225 21.6875 16.1885 21.4995 15.9545C21.1555 15.5305 21.2195 14.9034 21.6425 14.5585C23.5435 13.0055 24.6335 10.6805 24.6335 8.17943C24.6335 5.65844 23.5284 3.32152 21.6025 1.76744C21.1775 1.42553 21.1095 0.799426 21.4495 0.372425C21.5665 0.224964 21.7192 0.116687 21.8925 0.0557741C21.9634 0.0308718 22.0377 0.013904 22.1145 0.00548116ZM5.01099 1.76769C5.43604 1.42577 5.50403 0.799671 5.16394 0.372669C4.99805 0.164783 4.76294 0.034778 4.49902 0.0057253C4.42236 -0.00233134 4.34656 -0.00184306 4.27246 0.006946C4.22644 0.0123171 4.18103 0.0209841 4.1366 0.0328249C4.06982 0.0505251 4.00513 0.0753054 3.94324 0.106922C3.90015 0.128894 3.8584 0.154285 3.81836 0.182849C3.80225 0.194324 3.7865 0.206287 3.771 0.218738C1.37402 2.15074 0 5.05272 0 8.17968C0 11.2807 1.35596 14.1667 3.71997 16.0997C3.896 16.2428 4.11804 16.3227 4.34497 16.3227C4.646 16.3227 4.92603 16.1877 5.11499 15.9547C5.45801 15.5307 5.39404 14.9037 4.97095 14.5587C3.07104 13.0057 1.98096 10.6808 1.98096 8.17968C1.98096 5.65868 3.08496 3.32067 5.01099 1.76769ZM9.09204 4.58129C9.51599 4.23937 9.58508 3.61339 9.24402 3.18529C9.078 2.97728 8.84204 2.84728 8.578 2.81932C8.31702 2.78929 8.05701 2.86632 7.85205 3.03234C6.30408 4.28038 5.41504 6.15331 5.41504 8.17235C5.41504 10.1733 6.29102 12.0373 7.81909 13.2864C7.99402 13.4293 8.21606 13.5094 8.44409 13.5094C8.74304 13.5094 9.02405 13.3744 9.21204 13.1413C9.55603 12.7174 9.49109 12.0903 9.07007 11.7453C8.00598 10.8754 7.396 9.57335 7.396 8.17235C7.396 6.75939 8.01404 5.45031 9.09204 4.58129ZM18.7621 3.03246C18.556 2.86644 18.297 2.78942 18.035 2.81945C17.7721 2.8474 17.535 2.97741 17.369 3.18541C17.0291 3.61351 17.097 4.23949 17.5221 4.58141C18.599 5.45043 19.218 6.75951 19.218 8.17247C19.218 9.57347 18.608 10.8755 17.5441 11.7445C17.1221 12.0904 17.0581 12.7175 17.401 13.1415C17.5901 13.3745 17.87 13.5095 18.17 13.5095C18.3971 13.5095 18.619 13.4294 18.795 13.2855C20.322 12.0375 21.198 10.1734 21.198 8.17247C21.198 6.15343 20.3101 4.28051 18.7621 3.03246ZM10.3759 8.02159C10.3759 6.40258 11.6879 5.09056 13.3069 5.09056C14.9259 5.09056 16.2379 6.40258 16.2379 8.02159C16.2379 9.26659 15.4579 10.3236 14.3629 10.7475V23.9026C14.3629 24.4885 13.8899 24.9646 13.3069 24.9646C12.7239 24.9646 12.2509 24.4885 12.2509 23.9026V10.7475C11.1559 10.3226 10.3759 9.26659 10.3759 8.02159Z" fill="white"/>
</svg>