<svg width="13" height="35" viewBox="0 0 13 35" fill="none" xmlns="http://www.w3.org/2000/svg">
<path fill-rule="evenodd" clip-rule="evenodd" d="M4.0885 16.3866C4.0885 15.0494 5.16805 13.9652 6.49999 13.9652C7.83192 13.9652 8.91147 15.0494 8.91147 16.3866V19.2914C8.91147 20.6286 7.83192 21.7126 6.49999 21.7126C5.16805 21.7126 4.0885 20.6286 4.0885 19.2914V16.3866ZM0 5.65167L0.0497711 5.73913L0.00259999 5.65782C0.00259999 5.65782 0.383126 6.91185 1.26192 8.42191C1.92863 9.56704 2.55226 10.3195 2.84364 10.6458L2.99945 10.9193V32.4275C2.99945 33.5721 3.92338 34.5 5.06329 34.5H7.93683C9.07655 34.5 10.0007 33.5721 10.0007 32.4275V10.8886L10.1158 10.6876C10.3851 10.3913 11.0392 9.62056 11.7404 8.41557C12.6196 6.9057 12.9999 5.65167 12.9999 5.65167V3.94507H0V5.65167ZM13 1.47675C13 0.937279 12.5646 0.5 12.0273 0.5H0.972888C0.435805 0.5 0.00012207 0.937279 0.00012207 1.47675C0.00012207 1.48103 0.00142206 1.48495 0.00142206 1.48905H0.00012207V2.44659H0.903988C0.927203 2.44808 0.949302 2.45349 0.972888 2.45349H12.0273C12.0509 2.45349 12.073 2.44808 12.0962 2.44659H13V1.48905H12.9987C12.9989 1.48495 13 1.48103 13 1.47675ZM6.25665 20.684C7.05763 20.819 7.81589 20.2764 7.95035 19.4721C8.08481 18.6677 7.54457 17.9063 6.7434 17.7713C5.94242 17.6365 5.18415 18.1789 5.0497 18.9834C4.91524 19.7876 5.45566 20.549 6.25665 20.684Z" fill="white"/>
</svg>