<svg width="24" height="18" viewBox="0 0 24 18" fill="none" xmlns="http://www.w3.org/2000/svg">
<path fill-rule="evenodd" clip-rule="evenodd" d="M11.8418 3.09668C15.5408 3.09668 18.9304 4.38939 21.6043 6.53486C21.8788 6.75584 22.2721 6.73274 22.5076 6.46957L23.5267 5.33757C23.7792 5.05734 23.7543 4.61338 23.4618 4.37432C20.2878 1.77785 16.2505 0 11.8418 0C7.43913 0 3.40775 1.77183 0.238751 4.36026C-0.053696 4.59931 -0.0796469 5.04227 0.172875 5.32351L1.18995 6.45652C1.42451 6.71968 1.81776 6.74278 2.09224 6.52281C4.76419 4.38436 8.14779 3.09668 11.8418 3.09668ZM11.8418 9.20465C13.9718 9.20465 15.9361 9.90977 17.5181 11.094C17.7976 11.3019 18.1818 11.2788 18.4144 11.0207L19.5452 9.76312C19.8008 9.47886 19.7738 9.02888 19.4734 8.79585C17.3614 7.1556 14.7184 6.10999 11.8418 6.10999C8.97126 6.10999 6.33025 7.15259 4.22124 8.78781C3.91982 9.02084 3.89287 9.47083 4.14738 9.75408L5.27625 11.0136C5.50881 11.2728 5.89408 11.2969 6.17255 11.088C7.75356 9.90675 9.71485 9.20465 11.8418 9.20465ZM15.4959 14.264C15.7673 13.9606 15.7085 13.4845 15.3711 13.2575C14.357 12.5765 13.1443 12.1335 11.8408 12.1335C10.5392 12.1335 9.32953 12.5755 8.31645 13.2535C7.97809 13.4795 7.9192 13.9566 8.19068 14.2599L11.3507 17.7815C11.6132 18.0728 12.0683 18.0728 12.3309 17.7815L15.4959 14.264Z" fill="white"/>
</svg>